<svg width="1121" height="424" viewBox="0 0 1121 424" fill="none" xmlns="http://www.w3.org/2000/svg">
<path d="M72.9 29V17C72.9 12.6 69.255 9 64.8 9H16.2C11.745 9 8.1 12.6 8.1 17V29C3.645 29 0 32.6 0 37V57H5.3865L7.452 63.12C7.857 64.24 8.91 65 10.125 65C10.7129 64.9991 11.286 64.8176 11.7649 64.4808C12.2438 64.144 12.6048 63.6684 12.798 63.12L14.8635 57H66.177L68.2425 63.12C68.607 64.24 69.66 65 70.875 65C71.4629 64.9991 72.036 64.8176 72.5149 64.4808C72.9938 64.144 73.3548 63.6684 73.548 63.12L75.6135 57H81V37C81 32.6 77.355 29 72.9 29ZM36.45 29H16.2V21C16.2 18.8 18.0225 17 20.25 17H36.45V29ZM64.8 29H44.55V17H60.75C62.9775 17 64.8 18.8 64.8 21V29Z" fill="black"/>
<path d="M529.1 0C524.645 0 521 3.7 521 8.22222V20.5556H602V8.22222C602 6.04155 601.147 3.9502 599.628 2.40823C598.109 0.866267 596.048 0 593.9 0H529.1ZM553.4 8.22222H569.6V12.3333H553.4V8.22222ZM521 24.6667V45.2222H602V24.6667H521ZM553.4 32.8889H569.6V37H553.4V32.8889ZM521 49.3333V61.6667C521 63.8473 521.853 65.9387 523.372 67.4807C524.891 69.0226 526.952 69.8889 529.1 69.8889V74H537.2V69.8889H585.8V74H593.9V69.8889C598.396 69.8889 602 66.23 602 61.6667V49.3333H521ZM553.4 57.5556H569.6V61.6667H553.4V57.5556Z" fill="black"/>
<path d="M790.1 9C787.952 9 785.891 9.84285 784.372 11.3431C782.853 12.8434 782 14.8783 782 17V57C782 59.1217 782.853 61.1566 784.372 62.6569C785.891 64.1571 787.952 65 790.1 65H854.9C857.048 65 859.109 64.1571 860.628 62.6569C862.147 61.1566 863 59.1217 863 57V17C863 14.8783 862.147 12.8434 860.628 11.3431C859.109 9.84285 857.048 9 854.9 9H790.1ZM790.1 17H838.7V57H790.1V17ZM850.85 17C851.924 17 852.954 17.4214 853.714 18.1716C854.473 18.9217 854.9 19.9391 854.9 21C854.9 22.0609 854.473 23.0783 853.714 23.8284C852.954 24.5786 851.924 25 850.85 25C849.776 25 848.746 24.5786 847.986 23.8284C847.227 23.0783 846.8 22.0609 846.8 21C846.8 19.9391 847.227 18.9217 847.986 18.1716C848.746 17.4214 849.776 17 850.85 17ZM798.2 25V33H830.6V25H798.2ZM850.85 33C851.924 33 852.954 33.4214 853.714 34.1716C854.473 34.9217 854.9 35.9391 854.9 37C854.9 38.0609 854.473 39.0783 853.714 39.8284C852.954 40.5786 851.924 41 850.85 41C849.776 41 848.746 40.5786 847.986 39.8284C847.227 39.0783 846.8 38.0609 846.8 37C846.8 35.9391 847.227 34.9217 847.986 34.1716C848.746 33.4214 849.776 33 850.85 33Z" fill="black"/>
<path d="M1078.52 13.125C1078.52 8.61562 1082.12 5 1086.61 5H1100.77C1105.22 5 1108.86 8.65625 1108.86 13.125V21.9C1104.17 23.5656 1100.77 28.0344 1100.77 33.3156V41.5625H1078.52V13.125ZM1052.23 33.275V41.5625H1074.48V13.125C1074.48 8.61562 1070.88 5 1066.39 5H1052.23C1047.78 5 1044.14 8.65625 1044.14 13.125V21.8594C1048.83 23.525 1052.23 28.0344 1052.23 33.275ZM1111.53 25.4344C1107.57 26.0844 1104.82 29.8625 1104.82 33.925V45.625H1048.18V33.4375C1048.18 31.2826 1047.33 29.216 1045.81 27.6923C1044.29 26.1685 1042.24 25.3125 1040.09 25.3125C1037.95 25.3125 1035.89 26.1685 1034.37 27.6923C1032.85 29.216 1032 31.2826 1032 33.4375V53.75C1032 58.2188 1035.64 61.875 1040.09 61.875V70H1048.18V61.875H1104.82V70H1112.91V61.875C1117.36 61.875 1121 58.2188 1121 53.75V33.4375C1121 28.5219 1116.59 24.5812 1111.53 25.4344Z" fill="black"/>
<path fill-rule="evenodd" clip-rule="evenodd" d="M19.1194 405.549C19.1194 405.013 19.3327 404.498 19.7122 404.118C20.0918 403.739 20.6065 403.525 21.1433 403.525H61.621C62.1578 403.525 62.6726 403.739 63.0521 404.118C63.4317 404.498 63.6449 405.013 63.6449 405.549C63.6449 406.086 63.4317 406.601 63.0521 406.98C62.6726 407.36 62.1578 407.573 61.621 407.573H21.1433C20.6065 407.573 20.0918 407.36 19.7122 406.98C19.3327 406.601 19.1194 406.086 19.1194 405.549ZM17.0955 359H65.6688C65.6688 359 73.7643 359 73.7643 367.096V391.382C73.7643 391.382 73.7643 399.478 65.6688 399.478H17.0955C17.0955 399.478 9 399.478 9 391.382V367.096C9 367.096 9 359 17.0955 359Z" fill="black"/>
<path d="M780.05 357H852.95C855.178 357 857 358.8 857 361C857 363.2 855.178 365 852.95 365V409H844.85V401H828.65V409H820.55V365H788.15V409H780.05V365C777.822 365 776 363.2 776 361C776 358.8 777.822 357 780.05 357ZM832.7 375V377H840.8V375C840.8 373.88 839.909 373 838.775 373H834.725C833.591 373 832.7 373.88 832.7 375ZM832.7 391V393H840.8V391C840.8 389.88 839.909 389 838.775 389H834.725C833.591 389 832.7 389.88 832.7 391Z" fill="black"/>
<path d="M1046.12 342C1043.97 342 1041.9 342.864 1040.38 344.402C1038.86 345.94 1038 348.025 1038 350.2V411.7C1038 416.251 1041.62 419.9 1046.12 419.9V424H1054.25V419.9H1086.75V424H1094.88V419.9C1099.38 419.9 1103 416.251 1103 411.7V350.2C1103 348.025 1102.14 345.94 1100.62 344.402C1099.1 342.864 1097.03 342 1094.88 342H1046.12ZM1046.12 350.2H1066.44V411.7H1046.12V350.2ZM1074.56 350.2H1094.88V411.7H1074.56V350.2ZM1054.25 374.8V387.1H1062.38V374.8H1054.25ZM1078.62 374.8V387.1H1086.75V374.8H1078.62Z" fill="black"/>
<path d="M315.583 0H283.961C282.326 0 281 1.3246 281 2.96V26.5158H318.543V2.96C318.543 1.3246 317.218 0 315.583 0ZM287.625 17.7921C287.625 18.2829 287.228 18.6792 286.737 18.6792C286.247 18.6792 285.849 18.2829 285.849 17.7921V8.72377C285.849 8.23291 286.247 7.8366 286.737 7.8366C287.228 7.8366 287.625 8.23291 287.625 8.72377V17.7921Z" fill="black"/>
<path d="M281 28.2762V68.769C281 70.4028 282.326 71.729 283.962 71.729H287.181V72.4337C287.181 73.2986 287.882 74 288.747 74C289.611 74 290.313 73.2978 290.313 72.4337V71.729H309.231V72.4337C309.231 73.2986 309.933 74 310.798 74C311.662 74 312.363 73.2978 312.363 72.4337V71.729H315.581C317.217 71.729 318.543 70.4036 318.543 68.769V28.2762H281ZM287.625 47.1989C287.625 47.6897 287.227 48.086 286.737 48.086C286.246 48.086 285.849 47.6897 285.849 47.1989V33.8402C285.849 33.3494 286.246 32.953 286.737 32.953C287.227 32.953 287.625 33.3494 287.625 33.8402V47.1989Z" fill="black"/>
<path fill-rule="evenodd" clip-rule="evenodd" d="M322.433 372.144V407.75C322.433 410.082 320.525 411.988 318.194 411.988H282.238C279.907 411.988 278 410.082 278 407.75V372.144H322.433ZM299.733 376.111C308.04 376.111 314.774 382.845 314.774 391.151C314.774 399.459 308.04 406.192 299.733 406.192C291.427 406.192 284.692 399.459 284.692 391.151C284.692 382.845 291.427 376.111 299.733 376.111Z" fill="black"/>
<path fill-rule="evenodd" clip-rule="evenodd" d="M282.238 359H318.194C320.525 359 322.433 360.907 322.433 363.238V370.282H278V363.238C278 360.907 279.907 359 282.238 359ZM283.775 362.863H290.714C291.88 362.863 292.834 363.817 292.834 364.983V365.298C292.834 366.464 291.88 367.417 290.714 367.417H283.775C282.61 367.417 281.656 366.464 281.656 365.298V364.983C281.656 363.817 282.61 362.863 283.775 362.863ZM312.014 363.381H317.844V367.176H312.014V363.381ZM296.213 363.381H300.008V367.176H296.213V363.381ZM300.975 363.381H304.769V367.176H300.975V363.381Z" fill="black"/>
<path fill-rule="evenodd" clip-rule="evenodd" d="M299.73 378.616C303.192 378.616 306.327 380.02 308.596 382.288C310.865 384.556 312.269 387.691 312.269 391.151C312.269 394.613 310.865 397.747 308.596 400.015C306.327 402.283 303.192 403.687 299.73 403.687C296.267 403.687 293.133 402.283 290.864 400.015C288.595 397.747 287.191 394.613 287.191 391.151C287.191 387.691 288.595 384.556 290.864 382.288C293.133 380.02 296.267 378.616 299.73 378.616ZM288.303 392.25C291.607 393.424 295.526 394.105 299.73 394.105C303.934 394.105 307.853 393.424 311.156 392.25C311.19 391.888 311.209 391.522 311.209 391.151C311.209 387.983 309.923 385.114 307.847 383.037C305.77 380.962 302.9 379.676 299.73 379.676C296.56 379.676 293.69 380.962 291.613 383.037C289.537 385.114 288.251 387.983 288.251 391.151C288.251 391.522 288.269 391.888 288.303 392.25Z" fill="black"/>
<path d="M595.775 371.975H594.516V387.475H592.077V384.091V382.911V367.963L588.458 365.839H587.435V378.427H577.758V379.607V383.619L573.903 377.404H549.356L545.501 383.619V379.607V378.427H535.824V365.839H534.801L531.182 367.963V382.911V384.091V387.475H528.743V371.975H527.485L523 374.65V392.982V394.477V410.684H524.81L525.36 409.818V394.477H526.855V405.177H528.271L528.743 404.232V394.477H531.104V397.309H532.598L532.992 396.601V394.398H535.195V410.605H537.004L537.476 409.661V393.611L538.656 391.802V405.177H540.073L540.545 404.232V388.969V387.475H535.745V384.091H541.017V397.309H542.512L542.905 396.522V383.383L543.849 381.967V386.137L543.534 386.688V412.1H546.524V389.599H549.514V400.141H551.874V389.599H570.756V400.141H573.116V389.599H576.499V412.021H579.489V386.688L579.174 386.137V381.967L580.119 383.383V396.522L580.512 397.309H582.007V384.091H587.278V387.475H582.479V388.969V404.232L582.951 405.177H584.367V391.802L585.547 393.611V409.74L586.019 410.684H587.829V394.477H590.032V396.68L590.425 397.388H591.92V394.555H594.28V404.311L594.752 405.255H596.168V394.477H597.663V409.897L598.214 410.763H600.023V394.477V392.982V374.65L595.775 371.975ZM533.07 387.475V384.091H534.329V387.475H533.07ZM588.93 387.475V384.091H590.189V387.475H588.93Z" fill="black"/>
<path d="M558.876 364.58V364.659C558.876 366.153 560.135 367.412 561.63 367.412C563.125 367.412 564.384 366.153 564.384 364.659V364.58H558.876Z" fill="black"/>
<path d="M563.125 357.106V354.745H562.417V342H560.843V354.745H560.135V357.106C557.617 357.814 555.729 360.095 555.729 362.77C555.729 363.242 555.808 363.714 555.887 364.187H567.373C567.452 363.714 567.531 363.321 567.531 362.77C567.531 360.017 565.642 357.735 563.125 357.106Z" fill="black"/>
</svg>
